PathFileType	4	(X/Y/Z)	Patient4_TMGait_0pt4_01_left_30.trc.trc
DataRate	CameraRate	NumFrames	NumMarkers	Units	OrigDataRate	OrigDataStartFrame	OrigNumFrames
74.866310160428	74.866310160428	4	33	mm	74.866310160428	36	       141
Frame#	Time	Sacral			L.Shoulder			Chest			R.Shoulder			Neck			R.ASIS			L.ASIS			R.Thigh.Superior			R.Thigh.Lateral			R.Thigh.Inferior			R.Patella			L.Thigh.Superior			L.Thigh.Lateral			L.Thigh.Inferior			L.Patella			L.Shank.Superior			L.Shank.Lateral			L.Shank.Inferior			R.Shank.Superior			R.Shank.Lateral			R.Shank.Inferior			R.Heel			R.Midfoot.Superior			R.Midfoot.Lateral			R.Toe			L.Heel			L.Midfoot.Lateral			L.Midfoot.Superior			L.Toe			L.Elbow			L.Wrist			R.Elbow			R.Wrist			
		X1	Y1	Z1	X2	Y2	Z2	X3	Y3	Z3	X4	Y4	Z4	X5	Y5	Z5	X6	Y6	Z6	X7	Y7	Z7	X8	Y8	Z8	X9	Y9	Z9	X10	Y10	Z10	X11	Y11	Z11	X12	Y12	Z12	X13	Y13	Z13	X14	Y14	Z14	X15	Y15	Z15	X16	Y16	Z16	X17	Y17	Z17	X18	Y18	Z18	X19	Y19	Z19	X20	Y20	Z20	X21	Y21	Z21	X22	Y22	Z22	X23	Y23	Z23	X24	Y24	Z24	X25	Y25	Z25	X26	Y26	Z26	X27	Y27	Z27	X28	Y28	Z28	X29	Y29	Z29	X30	Y30	Z30	X31	Y31	Z31	X32	Y32	Z32	X33	Y33	Z33	

36	37.187500000000	895.742046913667	1000.435992834417	506.268661230262	1045.901336806002	1426.758093056728	303.027002166239	1165.932731263399	1364.917339432667	454.835550423767	1097.820561072732	1442.480449699649	633.899739975472	1045.208491756406	1492.182189515891	456.621464433994	1130.964747902906	938.378143028766	606.955307266892	1101.327466532259	960.242025219333	334.735049786226	1149.313590893851	727.113483769142	581.559159439452	1061.229686410488	624.599995147074	649.569379547922	1128.350788413130	562.196524540014	569.207002754661	1118.046710442810	462.388001657651	585.056272753498	1175.240290657789	762.434836899790	370.301579811402	1106.031734507200	635.147592192876	307.997596678375	1200.939416334181	568.806425823249	370.936889899338	1210.007705033747	497.555889475498	379.239137999796	1184.576332156779	422.647329236539	370.574159684097	1098.660016702606	306.891928451455	316.010078023602	1152.113211553078	195.435623344147	385.178487036897	1057.209053348237	386.986850342312	593.705439867009	955.468653248000	316.931270979528	661.352571136566	960.628743207722	210.734098405044	603.545483210465	781.323837052313	83.012004418151	583.797367946164	958.643366119490	101.064015593374	614.798499386854	862.704337966585	57.277017169857	655.702313839748	1066.464090212003	37.600269507364	641.359204475616	1027.492188425125	38.264006993108	422.297737452581	1101.887202470279	36.529320163622	342.123580851619	1183.944684805828	97.610505691739	370.554335044952	1312.884265110916	48.679100835724	342.014827625999	986.632757782408	1077.466922473485	194.396291074156	1060.913000421882	828.656621918693	157.461823047850	1125.100061856961	1098.238417035798	760.535278366876	1305.800537670969	934.870100939091	676.066481731939	
37	37.200857142857	895.661859169372	1000.579105248454	502.535411515566	1047.310831974594	1427.097278778454	299.757789120345	1166.348445420694	1365.261513493615	452.298404084771	1097.180852091903	1442.840656918316	630.942599178821	1045.703517786723	1492.486346550127	453.379489173938	1130.616501971276	938.850688296197	604.384612808308	1102.330776290473	960.496338567077	332.112665919804	1153.548609374118	728.660374586319	579.298745736137	1068.350808325052	624.673325794369	647.634714450487	1137.486288552440	563.163704167615	567.699136101839	1128.661542469904	461.690907898495	585.173935469863	1175.237299924376	761.640440749956	367.400355939481	1104.710055551721	634.779446857426	306.049297456702	1199.013648613164	567.915379091793	369.127104000866	1207.584438945605	496.822817046186	377.995877204450	1181.755098379565	421.924451466562	369.513447799511	1095.355135414322	306.512047799514	315.265640558650	1147.648068745987	194.955247964360	384.862914539694	1065.261954449361	387.252251461466	593.608165745313	960.683756699820	320.928229448506	660.576470613252	963.260194668940	214.115436451376	603.939303814743	779.904637404246	93.363883182630	584.113507859973	957.479419352025	102.794475471680	615.223938312233	859.737449174451	63.429809488759	655.823963672149	1061.344204281549	36.853576446585	641.279437761278	1022.167230219319	38.271709407793	422.254618474750	1096.534862708288	36.460772934207	342.049309713141	1178.686987549578	97.430547589651	370.499522043966	1307.632062736745	48.261508885048	341.892332012979	990.860032007315	1077.370391025684	190.452447037919	1071.153288644304	830.110474164550	154.801570829874	1120.129401199104	1098.119311720493	757.569294116528	1295.483506929557	926.285597247276	677.436115805342	
38	37.214214285714	895.466291517027	1000.651648414014	498.794166222546	1048.916329401346	1427.412186343967	296.495146148734	1166.712053363835	1365.541209431674	449.928990884169	1096.250274001799	1443.107914328779	628.067185994335	1046.162303951298	1492.746831816509	450.164076326740	1130.106985324725	939.326365722370	602.007897410481	1103.248063754172	960.690581223334	329.609726697688	1158.158449973848	730.519575082930	577.175187484850	1076.099025177884	624.951045307800	645.887777391094	1147.383445760980	564.483088944655	566.458486312594	1140.025953835678	461.469419651823	585.405197209445	1174.917222291696	760.716774773348	364.611294799281	1103.200540737222	634.441803586870	304.013083206103	1196.797413790419	567.022301488418	367.346530238262	1204.830638508559	496.055618653544	376.643545543273	1178.630813999595	421.189008948292	368.331473454074	1091.797632233015	306.056067571463	314.423538290557	1143.025492448883	194.463060779528	384.485319991978	1074.207386903011	387.888423925949	593.625914993901	966.846845794135	325.476313669391	659.881641526033	966.747106767697	218.129756746644	604.400762485244	779.443597461114	105.139852683439	584.368306241894	956.954171998205	105.140486777542	615.720786425293	857.345901936557	70.731397218575	655.916851042363	1056.258449351673	36.024941381280	641.201221317778	1016.795613822862	38.264682131601	422.225999012834	1091.134787603047	36.371555103215	341.983504812875	1173.397440213043	97.213836474050	370.440444584558	1302.343024529618	47.768863847558	341.792389987002	995.285711158746	1077.291105284825	186.472688029333	1081.691991510645	831.751155411043	152.368425401879	1114.842420789914	1097.958461429585	754.621978049441	1284.530536768416	917.675522519228	679.555117393921	
39	37.227571428571	895.177414060269	1000.642772559255	495.097939751486	1050.673838339119	1427.681379787199	293.279595856215	1167.017020780345	1365.741378083174	447.739273058666	1095.060080002168	1443.272072932109	625.296347454648	1046.582857771756	1492.954805219688	447.006108994092	1129.461606481557	939.795460213990	599.808236358679	1104.049565631026	960.835789146736	327.217675032983	1163.034920081308	732.709113211139	575.190931453884	1084.306191534883	625.486690190672	644.341459820698	1157.838358393915	566.205146938685	565.501081778209	1151.932804007104	461.784918437681	585.719237988719	1174.321662374258	759.741519489312	361.930610735428	1101.548731506100	634.153352885579	301.879875353568	1194.370875897261	566.151931192372	365.535796809395	1201.832235990359	495.274530111459	375.137325648356	1175.286459567511	420.454273867514	367.004616069699	1088.049155655436	305.551505776432	313.446926697668	1138.300412743362	193.977907889720	384.021964273443	1083.871216409571	388.931230280910	593.709204875116	973.846085060033	330.545860863428	659.257067677456	971.008233419383	222.765071706411	604.884929214711	779.987958295877	118.175305053930	584.530704010232	957.069212930046	108.202582095647	616.271467355076	855.605540525369	79.154364212277	655.961637207315	1051.308533953433	35.130206180559	641.144529021463	1011.402679094318	38.253686181094	422.196281338353	1085.714368021567	36.273435514746	341.912515566951	1168.096990107853	96.982559687854	370.359364119350	1297.039310304511	47.237720660872	341.708106942987	999.953401248534	1077.207044295110	182.470757077031	1092.488231289553	833.541878903771	150.174254105162	1109.201947535333	1097.739157812829	751.708152974359	1272.932170746291	909.155943266469	682.418644335939	
